PathFileType	4	(x/y/z)	S09_M20_T18
DataRate	CameraRate	NumFrames	NumMarkers	Units	OrigDataRate	OrigDataStartFrame	OrigNumFrames
240	240	7	51	mm	240	489	558
Frame#	Time	Sternum			R.Acromium			L.Acromium			Top.Head			R.ASIS			L.ASIS			R.PSIS			L.PSIS			R.Great.Tro			L.Great.Tro			R.Iliac.Crest			L.Iliac.Crest			V.Sacral			R.Thigh.Upper.Post			R.Thigh.Lower.Ant			R.Thigh.Lower.Post			R.Thigh.Upper.Ant			R.Knee.Lat			R.Knee.Med			R.Shank.Upper.Post			R.Shank.Lower.Ant			R.Shank.Lower.Post			R.Shank.Upper.Ant			R.Ankle.Lat			R.Ankle.Med			R.Heel.Upper			R.Heel.Med			R.Heel.Lat			R.Toe.Lat			R.Toe.Med			R.Toe.Tip			L.Thigh.Upper.Post			L.Thigh.Lower.Ant			L.Thigh.Lower.Post			L.Thigh.Upper.Ant			L.Knee.Lat			L.Knee.Med			L.Shank.Upper.Post			L.Shank.Lower.Ant			L.Shank.Lower.Post			L.Shank.Upper.Ant			L.Ankle.Lat			L.Ankle.Med			L.Heel.Upper			L.Heel.Med			L.Heel.Lat			L.Toe.Lat			L.Toe.Med			L.Toe.Tip			Cervical.Spine			Back			
		X1	Y1	Z1	X2	Y2	Z2	X3	Y3	Z3	X4	Y4	Z4	X5	Y5	Z5	X6	Y6	Z6	X7	Y7	Z7	X8	Y8	Z8	X9	Y9	Z9	X10	Y10	Z10	X11	Y11	Z11	X12	Y12	Z12	X13	Y13	Z13	X14	Y14	Z14	X15	Y15	Z15	X16	Y16	Z16	X17	Y17	Z17	X18	Y18	Z18	X19	Y19	Z19	X20	Y20	Z20	X21	Y21	Z21	X22	Y22	Z22	X23	Y23	Z23	X24	Y24	Z24	X25	Y25	Z25	X26	Y26	Z26	X27	Y27	Z27	X28	Y28	Z28	X29	Y29	Z29	X30	Y30	Z30	X31	Y31	Z31	X32	Y32	Z32	X33	Y33	Z33	X34	Y34	Z34	X35	Y35	Z35	X36	Y36	Z36	X37	Y37	Z37	X38	Y38	Z38	X39	Y39	Z39	X40	Y40	Z40	X41	Y41	Z41	X42	Y42	Z42	X43	Y43	Z43	X44	Y44	Z44	X45	Y45	Z45	X46	Y46	Z46	X47	Y47	Z47	X48	Y48	Z48	X49	Y49	Z49	X50	Y50	Z50	X51	Y51	Z51	

489	2.0333	1689	1187.9	264.05	1540.2	1426.1	413.13	1551.1	1426.4	101.19	1533	1724.4	255.98	1655.5	1017.2	366.33	1645	1018.6	120.08	1430.7	1023.8	301.65	1433.9	1033.6	211.53	1588.6	924.76	445.47	1570	926.35	56.995	1562.3	1089.1	415.57	1531.2	1108.9	89.489	1413.4	993.61	250.17	1687.9	691.11	432.15	1794.2	629.59	392.7	1721	604.75	407.53	1755.8	709.1	416.05	1803.8	552.93	391.45	1800.6	535.39	265.57	1791	368.82	407.52	1874.6	333.79	401.41	1814.2	295.87	401.64	1846.5	401.85	409.13	1904.4	125.72	396.69	1933.1	146.91	311.27	1861.3	77.589	338.7	1889	54.388	312.8	1873.2	51.158	375.67	2014.8	109.44	444.31	2064	140.92	347.67	2091.9	174.72	395.45	1482.7	677.38	128.25	1552.6	572.44	129.88	1487.1	588.8	150.97	1548.3	657.91	103.06	1525.6	494.9	145.7	1553.6	512.2	276.64	1447.2	374.71	143.3	1487	273.27	163.5	1427.9	300.92	155.21	1505.1	348.71	151.83	1398.5	107.53	191.31	1408.6	101.88	285.52	1318.6	78.236	245.1	1328.7	51.159	276.23	1316.4	51.771	215.78	1488.1	42.76	158.22	1528	37.285	266.17	1579.1	49.904	206.21	1463.5	1474	263.85	1424.6	1204.1	245.65
490	2.0375	1693.8	1187.1	263.98	1545.3	1425.5	413.38	1555.9	1425.8	101.44	1538	1723.8	256.34	1660.7	1016.3	366.14	1649.3	1018	119.88	1435.7	1023.2	302.11	1438.5	1033.1	212.01	1593.7	923.82	445.37	1573.8	925.87	56.888	1567.6	1088.2	415.7	1535.5	1108.4	89.678	1418.1	993.11	250.67	1692.3	690	431.98	1798.7	628.45	392.41	1725.4	603.64	407.22	1760.3	707.95	415.87	1808.4	552.31	391.1	1805.2	534.62	264.99	1799.1	368.15	407.14	1883.4	334.87	401.11	1823.8	295.7	401.31	1853.9	402.33	408.76	1917.9	127.37	396.4	1946.1	149.19	311	1875.8	78.23	338.51	1904.1	55.633	312.59	1888.4	52.09	375.45	2028.7	113.57	443.98	2077	146.23	347.34	2104.2	180.65	395.12	1485.7	677.34	128.39	1555	572.05	129.8	1489.7	588.68	151.09	1551.1	657.59	103.02	1527.7	494.6	145.63	1556.1	511.75	276.48	1448.7	374.77	143.34	1488	273.14	163.46	1429.1	301.07	155.33	1506.5	348.48	151.76	1398.7	107.78	191.46	1408.9	102.08	285.63	1318.7	78.473	245.33	1328.8	51.311	276.4	1316.5	52.058	215.93	1488.1	42.765	158.24	1528.1	37.194	266.19	1579.3	49.639	206.16	1468.5	1473.4	264.19	1429.4	1203.5	246.06
491	2.0417	1698.6	1186.4	263.92	1550.5	1424.8	413.64	1560.8	1425.2	101.71	1543	1723.1	256.69	1666	1015.5	365.95	1653.6	1017.4	119.69	1440.7	1022.6	302.58	1443.2	1032.6	212.49	1598.9	922.88	445.27	1577.7	925.38	56.775	1572.9	1087.4	415.83	1539.8	1107.9	89.869	1422.9	992.6	251.17	1696.8	688.91	431.81	1803.1	627.29	392.15	1729.8	602.55	406.93	1764.8	706.81	415.7	1813	551.66	390.8	1809.7	533.85	264.47	1807.1	367.5	406.77	1892.1	335.93	400.82	1833.3	295.55	400.97	1861.2	402.77	408.41	1931.1	129.08	396.06	1958.8	151.53	310.7	1890	79.003	338.22	1918.9	57.017	312.3	1903.2	53.145	375.13	2042.2	117.7	443.64	2089.8	151.51	347.01	2116.1	186.52	394.82	1488.7	677.29	128.52	1557.5	571.66	129.74	1492.3	588.56	151.2	1553.8	657.27	102.98	1529.8	494.3	145.57	1558.6	511.3	276.33	1450.2	374.83	143.39	1489.1	273.02	163.42	1430.3	301.22	155.46	1507.9	348.25	151.69	1399	108.05	191.61	1409.3	102.31	285.75	1318.9	78.731	245.56	1329	51.486	276.57	1316.7	52.361	216.09	1488.2	42.769	158.26	1528.2	37.107	266.2	1579.4	49.369	206.12	1473.5	1472.7	264.55	1434.1	1202.9	246.47
492	2.0458	1703.5	1185.6	263.88	1555.6	1424.1	413.91	1565.7	1424.6	101.99	1548	1722.4	257.04	1671.2	1014.6	365.76	1658	1016.7	119.49	1445.7	1022	303.04	1447.9	1032.1	212.97	1604	921.95	445.18	1581.5	924.87	56.655	1578.3	1086.5	415.97	1544.1	1107.4	90.062	1427.6	992.07	251.67	1701.4	687.83	431.66	1807.5	626.14	391.91	1734.2	601.46	406.67	1769.4	705.66	415.56	1817.6	550.99	390.54	1814.3	533.06	264.01	1815	366.87	406.4	1900.6	336.97	400.56	1842.7	295.44	400.63	1868.4	403.2	408.09	1944	130.84	395.67	1971.3	153.93	310.35	1904	79.893	337.84	1933.4	58.524	311.91	1917.8	54.305	374.72	2055.3	121.79	443.29	2102.2	156.75	346.68	2127.8	192.29	394.53	1491.7	677.23	128.65	1560	571.26	129.67	1494.9	588.44	151.3	1556.6	656.94	102.94	1532	494	145.52	1561.1	510.84	276.19	1451.7	374.9	143.43	1490.2	272.9	163.39	1431.6	301.37	155.6	1509.4	348.02	151.61	1399.3	108.33	191.75	1409.6	102.54	285.85	1319	79.014	245.8	1329.1	51.685	276.74	1316.8	52.681	216.25	1488.3	42.771	158.27	1528.4	37.022	266.2	1579.6	49.096	206.07	1478.5	1472.1	264.92	1438.9	1202.3	246.89
493	2.05	1708.3	1184.8	263.84	1560.8	1423.5	414.19	1570.6	1424	102.29	1553	1721.7	257.4	1676.5	1013.7	365.57	1662.4	1016	119.3	1450.7	1021.4	303.51	1452.6	1031.5	213.46	1609.3	921.03	445.1	1585.4	924.34	56.532	1583.6	1085.7	416.12	1548.4	1106.9	90.256	1432.4	991.54	252.18	1705.9	686.77	431.52	1812	624.99	391.71	1738.6	600.38	406.45	1774	704.54	415.42	1822.2	550.3	390.34	1818.9	532.27	263.6	1822.7	366.25	406.03	1909	337.99	400.3	1851.9	295.35	400.29	1875.5	403.59	407.8	1956.6	132.63	395.22	1983.5	156.37	309.97	1917.6	80.885	337.37	1947.5	60.136	311.43	1932	55.548	374.2	2068.1	125.83	442.92	2114.2	161.91	346.34	2139	197.94	394.26	1494.8	677.17	128.78	1562.5	570.86	129.62	1497.5	588.32	151.4	1559.4	656.61	102.9	1534.1	493.7	145.47	1563.6	510.39	276.06	1453.3	374.96	143.48	1491.3	272.79	163.36	1432.8	301.52	155.75	1510.8	347.79	151.53	1399.5	108.63	191.89	1410	102.79	285.96	1319.2	79.325	246.03	1329.3	51.911	276.9	1316.9	53.022	216.4	1488.4	42.772	158.28	1528.5	36.94	266.2	1579.7	48.821	206.03	1483.5	1471.4	265.3	1443.8	1201.7	247.31
494	2.0542	1713.2	1184	263.82	1566	1422.8	414.49	1575.5	1423.4	102.59	1558	1721	257.76	1681.7	1012.8	365.39	1666.8	1015.3	119.12	1455.8	1020.8	303.98	1457.4	1031	213.95	1614.5	920.11	445.02	1589.3	923.8	56.406	1589	1084.8	416.27	1552.8	1106.3	90.452	1437.2	990.99	252.69	1710.5	685.74	431.4	1816.5	623.85	391.52	1743.1	599.33	406.25	1778.6	703.43	415.31	1826.9	549.6	390.17	1823.4	531.48	263.25	1830.4	365.64	405.67	1917.2	338.97	400.06	1860.9	295.29	399.94	1882.5	403.95	407.54	1968.9	134.42	394.72	1995.4	158.84	309.55	1931	81.961	336.81	1961.3	61.836	310.85	1945.9	56.855	373.58	2080.6	129.78	442.54	2126	166.97	346.01	2150	203.43	394	1497.8	677.09	128.9	1565	570.46	129.56	1500.2	588.21	151.48	1562.3	656.27	102.87	1536.3	493.39	145.43	1566.2	509.93	275.93	1454.9	375.04	143.52	1492.4	272.68	163.33	1434.2	301.67	155.91	1512.3	347.56	151.45	1399.8	108.95	192.02	1410.4	103.05	286.06	1319.4	79.668	246.26	1329.4	52.17	277.06	1317	53.385	216.55	1488.4	42.772	158.3	1528.6	36.863	266.2	1579.9	48.544	205.98	1488.6	1470.8	265.69	1448.6	1201.1	247.74
495	2.0583	1718.1	1183.2	263.81	1571.1	1422.1	414.79	1580.4	1422.8	102.91	1563	1720.2	258.13	1687	1011.9	365.2	1671.2	1014.6	118.93	1460.9	1020.1	304.45	1462.2	1030.4	214.46	1619.8	919.21	444.95	1593.2	923.24	56.281	1594.4	1084	416.42	1557.2	1105.8	90.649	1442.1	990.44	253.2	1715.2	684.74	431.29	1821.1	622.74	391.37	1747.6	598.3	406.08	1783.3	702.35	415.21	1831.5	548.88	390.05	1828.1	530.69	262.95	1838	365.05	405.32	1925.3	339.91	399.83	1869.8	295.23	399.58	1889.4	404.28	407.3	1980.9	136.2	394.16	2007	161.3	309.09	1944	83.101	336.16	1974.7	63.6	310.19	1959.4	58.203	372.86	2092.6	133.61	442.14	2137.3	171.89	345.66	2160.6	208.74	393.74	1500.9	677.01	129.02	1567.5	570.05	129.52	1502.9	588.11	151.56	1565.2	655.92	102.84	1538.6	493.08	145.39	1568.7	509.47	275.81	1456.5	375.11	143.56	1493.6	272.57	163.3	1435.5	301.82	156.07	1513.8	347.34	151.35	1400.1	109.28	192.14	1410.8	103.33	286.16	1319.6	80.045	246.49	1329.6	52.463	277.21	1317.2	53.773	216.7	1488.5	42.771	158.31	1528.7	36.791	266.19	1580	48.267	205.93	1493.6	1470.1	266.09	1453.5	1200.4	248.17
